{
	"asset":{
		"generator":"Khronos glTF Blender I/O v3.6.27",
		"version":"2.0"
	},
	"scene":0,
	"scenes":[
		{
			"name":"Scene",
			"nodes":[
				0,
				1
			]
		}
	],
	"nodes":[
		{
			"mesh":0,
			"name":"Plane",
			"rotation":[
				0,
				-0.7071068286895752,
				-0.7071068286895752,
				0
			],
			"scale":[
				-1,
				-1,
				-1
			],
			"translation":[
				0.24001631140708923,
				0.1388624906539917,
				-2.224602460861206
			]
		},
		{
			"name":"Empty",
			"rotation":[
				0.70710688829422,
				0,
				0,
				0.7071066498756409
			],
			"translation":[
				0,
				0,
				-4.13773775100708
			]
		}
	],
	"materials":[
		{
			"doubleSided":true,
			"name":"Material.001",
			"pbrMetallicRoughness":{
				"baseColorFactor":[
					0,
					0,
					0,
					1
				],
				"metallicFactor":0,
				"roughnessFactor":0.5
			}
		},
		{
			"doubleSided":true,
			"name":"Material.002",
			"pbrMetallicRoughness":{
				"baseColorFactor":[
					0.8000000715255737,
					0.21318639814853668,
					0.06688913702964783,
					1
				],
				"metallicFactor":0,
				"roughnessFactor":0.5
			}
		},
		{
			"doubleSided":true,
			"name":"Material.003",
			"pbrMetallicRoughness":{
				"baseColorFactor":[
					0.022495847195386887,
					0.21817395091056824,
					0.8000000715255737,
					1
				],
				"metallicFactor":0,
				"roughnessFactor":0.5
			}
		},
		{
			"doubleSided":true,
			"name":"Material.004",
			"pbrMetallicRoughness":{
				"baseColorFactor":[
					0.8000000715255737,
					0.6898074746131897,
					0.06492041796445847,
					1
				],
				"metallicFactor":0,
				"roughnessFactor":0.5
			}
		},
		{
			"doubleSided":true,
			"name":"Material.005",
			"pbrMetallicRoughness":{
				"baseColorFactor":[
					0.8000000715255737,
					0.08361203223466873,
					0.13371454179286957,
					1
				],
				"metallicFactor":0,
				"roughnessFactor":0.5
			}
		},
		{
			"doubleSided":true,
			"name":"Material.006",
			"pbrMetallicRoughness":{
				"baseColorFactor":[
					0.14671912789344788,
					0.8000000715255737,
					0.24568355083465576,
					1
				],
				"metallicFactor":0,
				"roughnessFactor":0.5
			}
		},
		{
			"doubleSided":true,
			"name":"Material.007",
			"pbrMetallicRoughness":{
				"baseColorTexture":{
					"index":0
				},
				"metallicFactor":0,
				"roughnessFactor":0.5
			}
		},
		{
			"doubleSided":true,
			"name":"Material.008",
			"pbrMetallicRoughness":{
				"baseColorFactor":[
					0.12823885679244995,
					0.12823885679244995,
					0.12823885679244995,
					1
				],
				"metallicFactor":0,
				"roughnessFactor":0.5
			}
		},
		{
			"doubleSided":true,
			"name":"Material.009",
			"pbrMetallicRoughness":{
				"baseColorTexture":{
					"index":1
				},
				"metallicFactor":0,
				"roughnessFactor":0.5
			}
		}
	],
	"meshes":[
		{
			"name":"Plane",
			"primitives":[
				{
					"attributes":{
						"POSITION":0,
						"NORMAL":1,
						"TEXCOORD_0":2
					},
					"indices":3,
					"material":0
				},
				{
					"attributes":{
						"POSITION":4,
						"NORMAL":5,
						"TEXCOORD_0":6
					},
					"indices":7,
					"material":1
				},
				{
					"attributes":{
						"POSITION":8,
						"NORMAL":9,
						"TEXCOORD_0":10
					},
					"indices":11,
					"material":2
				},
				{
					"attributes":{
						"POSITION":12,
						"NORMAL":13,
						"TEXCOORD_0":14
					},
					"indices":11,
					"material":3
				},
				{
					"attributes":{
						"POSITION":15,
						"NORMAL":16,
						"TEXCOORD_0":17
					},
					"indices":18,
					"material":4
				},
				{
					"attributes":{
						"POSITION":19,
						"NORMAL":20,
						"TEXCOORD_0":21
					},
					"indices":11,
					"material":5
				},
				{
					"attributes":{
						"POSITION":22,
						"NORMAL":23,
						"TEXCOORD_0":24
					},
					"indices":25,
					"material":6
				},
				{
					"attributes":{
						"POSITION":26,
						"NORMAL":27,
						"TEXCOORD_0":28
					},
					"indices":29,
					"material":7
				},
				{
					"attributes":{
						"POSITION":30,
						"NORMAL":31,
						"TEXCOORD_0":32
					},
					"indices":33,
					"material":8
				}
			]
		}
	],
	"textures":[
		{
			"sampler":0,
			"source":0
		},
		{
			"sampler":0,
			"source":1
		}
	],
	"images":[
		{
			"bufferView":26,
			"mimeType":"image/png",
			"name":"poster"
		},
		{
			"bufferView":35,
			"mimeType":"image/png",
			"name":"monitor"
		}
	],
	"accessors":[
		{
			"bufferView":0,
			"componentType":5126,
			"count":830,
			"max":[
				1.9538462162017822,
				-0.04900356009602547,
				-0.04432201012969017
			],
			"min":[
				-1.0000009536743164,
				-2.5105109214782715,
				-6.335039138793945
			],
			"type":"VEC3"
		},
		{
			"bufferView":1,
			"componentType":5126,
			"count":830,
			"type":"VEC3"
		},
		{
			"bufferView":2,
			"componentType":5126,
			"count":830,
			"type":"VEC2"
		},
		{
			"bufferView":3,
			"componentType":5123,
			"count":1830,
			"type":"SCALAR"
		},
		{
			"bufferView":4,
			"componentType":5126,
			"count":87,
			"max":[
				1.9538462162017822,
				-0.24900352954864502,
				-0.04432189092040062
			],
			"min":[
				-1.0000009536743164,
				-2.3105111122131348,
				-6.245519161224365
			],
			"type":"VEC3"
		},
		{
			"bufferView":5,
			"componentType":5126,
			"count":87,
			"type":"VEC3"
		},
		{
			"bufferView":6,
			"componentType":5126,
			"count":87,
			"type":"VEC2"
		},
		{
			"bufferView":7,
			"componentType":5123,
			"count":213,
			"type":"SCALAR"
		},
		{
			"bufferView":8,
			"componentType":5126,
			"count":160,
			"max":[
				1.4094442129135132,
				-0.3223225474357605,
				-3.1610190868377686
			],
			"min":[
				1.2943161725997925,
				-0.43602436780929565,
				-3.2002060413360596
			],
			"type":"VEC3"
		},
		{
			"bufferView":9,
			"componentType":5126,
			"count":160,
			"type":"VEC3"
		},
		{
			"bufferView":10,
			"componentType":5126,
			"count":160,
			"type":"VEC2"
		},
		{
			"bufferView":11,
			"componentType":5123,
			"count":282,
			"type":"SCALAR"
		},
		{
			"bufferView":12,
			"componentType":5126,
			"count":160,
			"max":[
				1.410649299621582,
				-0.5877801775932312,
				-3.16079044342041
			],
			"min":[
				1.2955212593078613,
				-0.7014819979667664,
				-3.1999776363372803
			],
			"type":"VEC3"
		},
		{
			"bufferView":13,
			"componentType":5126,
			"count":160,
			"type":"VEC3"
		},
		{
			"bufferView":14,
			"componentType":5126,
			"count":160,
			"type":"VEC2"
		},
		{
			"bufferView":15,
			"componentType":5126,
			"count":292,
			"max":[
				1.4492608308792114,
				-0.4566301703453064,
				-3.185183048248291
			],
			"min":[
				1.1668161153793335,
				-1.9802207946777344,
				-3.740633249282837
			],
			"type":"VEC3"
		},
		{
			"bufferView":16,
			"componentType":5126,
			"count":292,
			"type":"VEC3"
		},
		{
			"bufferView":17,
			"componentType":5126,
			"count":292,
			"type":"VEC2"
		},
		{
			"bufferView":18,
			"componentType":5123,
			"count":462,
			"type":"SCALAR"
		},
		{
			"bufferView":19,
			"componentType":5126,
			"count":160,
			"max":[
				1.5377249717712402,
				-0.45169228315353394,
				-3.136707067489624
			],
			"min":[
				1.422597050666809,
				-0.5653943419456482,
				-3.175894260406494
			],
			"type":"VEC3"
		},
		{
			"bufferView":20,
			"componentType":5126,
			"count":160,
			"type":"VEC3"
		},
		{
			"bufferView":21,
			"componentType":5126,
			"count":160,
			"type":"VEC2"
		},
		{
			"bufferView":22,
			"componentType":5126,
			"count":118,
			"max":[
				1.9538462162017822,
				-0.04900356009602547,
				-0.04432189092040062
			],
			"min":[
				-1.0000009536743164,
				-2.5105109214782715,
				-6.335039138793945
			],
			"type":"VEC3"
		},
		{
			"bufferView":23,
			"componentType":5126,
			"count":118,
			"type":"VEC3"
		},
		{
			"bufferView":24,
			"componentType":5126,
			"count":118,
			"type":"VEC2"
		},
		{
			"bufferView":25,
			"componentType":5123,
			"count":300,
			"type":"SCALAR"
		},
		{
			"bufferView":27,
			"componentType":5126,
			"count":256,
			"max":[
				1.4765387773513794,
				-1.6459393501281738,
				-3.12276029586792
			],
			"min":[
				1.049172282218933,
				-2.0666351318359375,
				-3.320554256439209
			],
			"type":"VEC3"
		},
		{
			"bufferView":28,
			"componentType":5126,
			"count":256,
			"type":"VEC3"
		},
		{
			"bufferView":29,
			"componentType":5126,
			"count":256,
			"type":"VEC2"
		},
		{
			"bufferView":30,
			"componentType":5123,
			"count":384,
			"type":"SCALAR"
		},
		{
			"bufferView":31,
			"componentType":5126,
			"count":6,
			"max":[
				0.4770823121070862,
				-0.35778573155403137,
				-3.368055582046509
			],
			"min":[
				0.13776203989982605,
				-2.201728582382202,
				-4.576439380645752
			],
			"type":"VEC3"
		},
		{
			"bufferView":32,
			"componentType":5126,
			"count":6,
			"type":"VEC3"
		},
		{
			"bufferView":33,
			"componentType":5126,
			"count":6,
			"type":"VEC2"
		},
		{
			"bufferView":34,
			"componentType":5123,
			"count":12,
			"type":"SCALAR"
		}
	],
	"bufferViews":[
		{
			"buffer":0,
			"byteLength":9960,
			"byteOffset":0,
			"target":34962
		},
		{
			"buffer":0,
			"byteLength":9960,
			"byteOffset":9960,
			"target":34962
		},
		{
			"buffer":0,
			"byteLength":6640,
			"byteOffset":19920,
			"target":34962
		},
		{
			"buffer":0,
			"byteLength":3660,
			"byteOffset":26560,
			"target":34963
		},
		{
			"buffer":0,
			"byteLength":1044,
			"byteOffset":30220,
			"target":34962
		},
		{
			"buffer":0,
			"byteLength":1044,
			"byteOffset":31264,
			"target":34962
		},
		{
			"buffer":0,
			"byteLength":696,
			"byteOffset":32308,
			"target":34962
		},
		{
			"buffer":0,
			"byteLength":426,
			"byteOffset":33004,
			"target":34963
		},
		{
			"buffer":0,
			"byteLength":1920,
			"byteOffset":33432,
			"target":34962
		},
		{
			"buffer":0,
			"byteLength":1920,
			"byteOffset":35352,
			"target":34962
		},
		{
			"buffer":0,
			"byteLength":1280,
			"byteOffset":37272,
			"target":34962
		},
		{
			"buffer":0,
			"byteLength":564,
			"byteOffset":38552,
			"target":34963
		},
		{
			"buffer":0,
			"byteLength":1920,
			"byteOffset":39116,
			"target":34962
		},
		{
			"buffer":0,
			"byteLength":1920,
			"byteOffset":41036,
			"target":34962
		},
		{
			"buffer":0,
			"byteLength":1280,
			"byteOffset":42956,
			"target":34962
		},
		{
			"buffer":0,
			"byteLength":3504,
			"byteOffset":44236,
			"target":34962
		},
		{
			"buffer":0,
			"byteLength":3504,
			"byteOffset":47740,
			"target":34962
		},
		{
			"buffer":0,
			"byteLength":2336,
			"byteOffset":51244,
			"target":34962
		},
		{
			"buffer":0,
			"byteLength":924,
			"byteOffset":53580,
			"target":34963
		},
		{
			"buffer":0,
			"byteLength":1920,
			"byteOffset":54504,
			"target":34962
		},
		{
			"buffer":0,
			"byteLength":1920,
			"byteOffset":56424,
			"target":34962
		},
		{
			"buffer":0,
			"byteLength":1280,
			"byteOffset":58344,
			"target":34962
		},
		{
			"buffer":0,
			"byteLength":1416,
			"byteOffset":59624,
			"target":34962
		},
		{
			"buffer":0,
			"byteLength":1416,
			"byteOffset":61040,
			"target":34962
		},
		{
			"buffer":0,
			"byteLength":944,
			"byteOffset":62456,
			"target":34962
		},
		{
			"buffer":0,
			"byteLength":600,
			"byteOffset":63400,
			"target":34963
		},
		{
			"buffer":0,
			"byteLength":305415,
			"byteOffset":64000
		},
		{
			"buffer":0,
			"byteLength":3072,
			"byteOffset":369416,
			"target":34962
		},
		{
			"buffer":0,
			"byteLength":3072,
			"byteOffset":372488,
			"target":34962
		},
		{
			"buffer":0,
			"byteLength":2048,
			"byteOffset":375560,
			"target":34962
		},
		{
			"buffer":0,
			"byteLength":768,
			"byteOffset":377608,
			"target":34963
		},
		{
			"buffer":0,
			"byteLength":72,
			"byteOffset":378376,
			"target":34962
		},
		{
			"buffer":0,
			"byteLength":72,
			"byteOffset":378448,
			"target":34962
		},
		{
			"buffer":0,
			"byteLength":48,
			"byteOffset":378520,
			"target":34962
		},
		{
			"buffer":0,
			"byteLength":24,
			"byteOffset":378568,
			"target":34963
		},
		{
			"buffer":0,
			"byteLength":17500,
			"byteOffset":378592
		}
	],
	"samplers":[
		{
			"magFilter":9729,
			"minFilter":9987
		}
	],
	"buffers":[
		{
			"byteLength":396092,
			"uri":"data:application/octet-stream;base64,"
		}
	]
}
